<?xml version="1.0" standalone="no"?>
<!DOCTYPE svg PUBLIC "-//W3C//DTD SVG 20010904//EN"
 "http://www.w3.org/TR/2001/REC-SVG-20010904/DTD/svg10.dtd">
<svg version="1.0" xmlns="http://www.w3.org/2000/svg"
 width="185.000000pt" height="185.000000pt" viewBox="0 0 185.000000 185.000000"
 preserveAspectRatio="xMidYMid meet">
<metadata>
Created by potrace 1.11, written by Peter Selinger 2001-2013
</metadata>
<g transform="translate(0.000000,185.000000) scale(0.100000,-0.100000)"
fill="#000000" stroke="none">
<path d="M2 1555 c2 -35 2 -35 50 -35 31 0 48 -4 49 -12 1 -7 1 -70 1 -140 l1
-126 27 -4 c49 -7 50 -5 50 143 l0 139 48 0 c27 0 51 2 54 5 2 3 3 18 0 35
l-4 30 -139 0 -140 0 3 -35z"/>
<path d="M390 1416 c0 -172 0 -174 23 -178 52 -9 57 -2 57 78 l0 74 75 0 75 0
0 -75 0 -75 38 0 39 0 0 175 1 175 -39 0 -39 0 0 -65 0 -65 -75 0 -75 0 0 65
0 65 -40 0 -40 0 0 -174z"/>
<path d="M803 1415 l0 -175 36 -1 c42 -1 156 -1 189 0 18 1 22 7 22 36 l0 35
-85 0 -85 0 0 35 0 35 74 0 c79 0 93 10 76 55 -7 18 -16 20 -79 19 l-71 -2 0
34 0 34 79 0 79 0 4 30 c3 17 2 32 0 35 -3 3 -58 5 -122 5 l-117 0 0 -175z"/>
<path d="M1271 1576 c-44 -16 -99 -79 -107 -123 -15 -79 20 -155 89 -194 37
-20 52 -21 238 -21 116 0 213 5 232 11 66 22 117 98 117 174 0 41 -35 102 -77
134 l-36 28 -211 2 c-151 2 -221 -1 -245 -11z"/>
<path d="M15 928 l0 -173 38 -3 c30 -3 37 0 38 15 0 10 0 70 -1 133 -1 63 1
112 3 110 3 -3 24 -63 47 -133 l43 -128 31 3 c29 3 31 7 72 126 23 68 44 125
46 127 2 2 3 -55 3 -126 l0 -129 37 0 c21 0 38 3 39 8 1 10 1 314 0 330 -1 8
-20 12 -59 12 l-57 0 -39 -111 c-45 -128 -42 -129 -92 23 l-29 88 -60 0 -60 0
0 -172z"/>
<path d="M615 1084 c-61 -32 -91 -75 -101 -143 -7 -53 23 -120 71 -157 32 -24
47 -29 100 -29 49 0 69 5 98 25 78 53 101 152 54 233 -45 76 -149 109 -222 71z"/>
<path d="M912 1088 c2 -7 32 -86 68 -176 l65 -163 33 3 c33 3 34 4 103 172 38
94 69 171 69 174 0 2 -19 2 -42 0 l-41 -3 -40 -107 c-22 -60 -43 -108 -46
-108 -3 0 -24 50 -45 110 l-40 110 -44 0 c-30 0 -42 -4 -40 -12z"/>
<path d="M1370 925 l0 -175 38 0 39 0 0 175 1 175 -39 0 -39 0 0 -175z"/>
<path d="M1590 925 l0 -175 125 0 125 0 0 35 0 35 -85 0 -85 0 0 35 c0 38 5
40 103 35 30 -1 39 3 46 21 17 46 6 54 -75 53 l-74 0 0 33 0 33 80 0 80 0 0
35 0 35 -120 0 -120 0 0 -175z"/>
<path d="M155 602 c-147 -42 -162 -253 -22 -321 41 -20 59 -21 394 -21 381 0
393 1 444 57 39 41 49 66 49 119 0 64 -37 127 -92 155 -40 21 -57 22 -386 23
-249 1 -356 -2 -387 -12z"/>
<path d="M1146 612 c-15 -3 -16 -21 -16 -178 l2 -174 76 0 c133 0 200 31 234
106 13 32 17 57 13 90 -10 82 -48 125 -127 144 -47 12 -149 18 -182 12z m201
-104 c26 -27 36 -78 22 -115 -12 -33 -54 -55 -109 -59 l-50 -4 0 106 0 106 56
-4 c42 -4 61 -11 81 -30z"/>
<path d="M1582 612 c-9 -3 -12 -48 -12 -178 l0 -175 98 2 c129 2 168 22 177
89 4 37 -17 76 -46 85 -17 6 -17 8 6 31 41 41 31 104 -22 132 -21 12 -176 23
-201 14z m157 -76 c15 -10 14 -41 -1 -53 -7 -5 -29 -10 -49 -12 -32 -2 -37 1
-41 22 -8 40 9 59 47 54 18 -3 38 -8 44 -11z m15 -145 c36 -30 2 -67 -61 -66
-37 1 -38 2 -41 41 l-3 41 45 -2 c24 0 51 -7 60 -14z"/>
</g>
</svg>
